<svg width="192" height="158" viewBox="0 0 192 158" fill="none" xmlns="http://www.w3.org/2000/svg">
<g clip-path="url(#clip0_37_39)">
<path d="M34.1895 89.4028C34.1895 94.7119 32.6198 99.1274 29.4803 102.702C26.2427 106.329 22.2202 108.116 17.2657 108.116C12.3111 108.116 8.33771 106.276 5.1001 102.597C1.9606 99.0222 0.341797 94.6068 0.341797 89.3503C0.341797 84.0938 1.91155 79.6257 5.1001 76.0513C8.33771 72.3718 12.3602 70.532 17.2657 70.532C22.1711 70.532 26.1936 72.3718 29.4312 76.0513C32.6198 79.6783 34.1895 84.0938 34.1895 89.3503V89.4028ZM25.2125 89.3503C25.2125 86.8271 24.4767 84.6194 23.0541 82.8848C21.5334 81.045 19.6203 80.0988 17.2657 80.0988C14.911 80.0988 13.1451 81.045 11.5753 82.9899C10.0546 84.8297 9.3188 86.9848 9.3188 89.4028C9.3188 91.8208 10.0056 94.1337 11.4282 95.8683C12.8998 97.7081 14.862 98.6017 17.2166 98.6017C19.5712 98.6017 21.3372 97.6556 22.9069 95.7106C24.3786 93.8709 25.1635 91.7683 25.1635 89.3503H25.2125Z" fill="black" stroke="black" stroke-width="0.458529" stroke-miterlimit="10"/>
<path d="M191.756 106.539C191.756 106.854 191.559 107.064 191.167 107.169C190.676 107.327 189.205 107.38 186.752 107.38C184.299 107.38 183.024 107.327 182.386 107.169C181.847 107.064 181.503 106.644 181.356 106.013C180.816 103.595 180.424 102.281 180.081 102.071C179.835 101.965 177.726 101.913 173.704 101.913C169.681 101.913 169.583 101.965 169.387 102.123C169.092 102.386 168.798 103.28 168.504 104.857C168.209 106.276 167.866 107.012 167.424 107.117C166.885 107.274 165.07 107.327 162.028 107.327C158.987 107.327 158.398 107.064 158.398 106.591C158.398 106.118 160.164 100.756 163.745 90.3486C167.621 79.0996 169.73 72.9495 170.073 71.7931C170.27 71.1623 170.466 70.8469 170.711 70.8469C171.153 70.8469 171.79 70.8469 172.673 70.9521C173.556 71.0572 174.243 71.0572 174.685 71.0572C175.126 71.0572 175.764 71.0572 176.549 70.9521C177.334 70.8469 178.02 70.8469 178.413 70.8469C178.805 70.8469 179.001 71.1098 179.247 71.688C180.032 73.4752 182.288 79.5727 186.016 89.9806C189.793 100.494 191.658 105.96 191.658 106.381L191.756 106.539ZM174.93 83.41C174.586 84.1459 174.047 85.7754 173.262 88.246C172.428 90.8742 171.987 92.4512 171.987 92.8717C171.987 93.2922 172.477 93.3448 173.409 93.3973H175.813C176.941 93.3973 177.432 93.2396 177.53 92.9768V92.6088C177.53 92.0306 177.186 90.5063 176.451 87.9831C175.764 85.5651 175.224 83.9882 174.881 83.3048L174.93 83.41Z" fill="black" stroke="black" stroke-width="0.458529" stroke-miterlimit="10"/>
<path d="M103.261 28.4264C103.015 29.32 103.261 30.1084 103.555 31.1072C103.947 32.3687 104.34 32.6841 105.468 34.8393C106.351 36.4688 106.743 37.2573 107.038 38.2035C107.479 39.7279 107.234 40.0958 107.675 41.5676C107.823 42.0407 108.215 43.5651 109.245 44.9318C109.638 45.4574 111.747 48.3485 114.936 48.296C115.377 48.296 117.094 48.296 118.418 46.9293C119.4 45.9831 119.645 44.8267 119.988 43.1971C120.528 40.7792 120.381 38.7817 120.283 38.0983C120.135 36.7316 119.841 34.0508 118.075 31.3174C116.064 28.2161 113.366 27.0071 112.385 26.5866C110.962 25.9558 108.362 24.7994 105.762 25.9032C105.223 26.1135 103.653 26.7969 103.211 28.2687L103.261 28.4264Z" fill="black" stroke="black" stroke-width="0.458529" stroke-miterlimit="10"/>
<path d="M129.26 38.7294C130.829 37.9935 133.724 36.5743 134.607 34.314C135.588 31.9486 134.361 29.0575 132.056 25.4831C125.09 14.7072 115.966 9.9238 115.966 9.9238C98.11 0.619786 80.0089 7.8212 77.409 8.92506C73.1903 10.6597 62.5944 15.2854 56.855 26.5344C54.4023 31.3703 51.7043 39.6231 54.6476 42.777C56.3645 44.6167 58.3757 43.0398 60.9756 45.1424C64.6057 48.1386 63.0359 53.1848 66.3226 55.6554C67.7452 56.7067 69.0206 56.4439 72.6507 56.3387C79.3221 56.1285 72.0129 56.9695 85.9445 56.6541C103.408 56.2862 101.985 55.1823 109 55.6554C117.732 56.2336 123.618 58.126 124.796 55.6554C125.335 54.6041 124.403 53.9208 123.864 50.2412C123.52 47.7706 122.785 42.777 125.139 40.4115C126.169 39.4128 126.66 39.991 129.26 38.7294Z" stroke="black" stroke-width="5.96087" stroke-miterlimit="10"/>
<path d="M53.9604 26.3767C52.2926 25.9561 51.4587 23.6958 50.4776 20.9625C49.8399 19.2278 48.8097 15.338 50.1832 10.8174C51.7039 5.82372 55.1868 3.35317 56.1679 2.66982C60.0432 0.146699 63.8204 0.462089 65.6355 0.619784C67.1562 0.777479 71.9635 1.25056 74.4653 5.03525C74.9558 5.77116 75.6917 6.87503 75.3973 8.08402C74.9558 10.1866 71.7182 10.87 70.0504 11.4482C60.4357 14.7072 58.1791 27.428 53.9604 26.3241V26.3767Z" fill="black" stroke="black" stroke-width="0.458529" stroke-miterlimit="10"/>
<path d="M115.866 7.4011C115.915 4.14207 120.379 1.77664 122.488 0.988164C129.013 -1.42983 137.205 2.40742 140.491 9.13575C142.797 13.814 142.748 19.9116 140.197 24.0117C139.903 24.4322 137.646 28.1117 135.144 27.7438C133.133 27.4284 132.25 24.695 131.024 22.3296C125.824 12.3948 115.768 12.3422 115.866 7.45367V7.4011Z" fill="black" stroke="black" stroke-width="0.458529" stroke-miterlimit="10"/>
<path d="M54.5008 42.7768C52.0971 42.2512 50.2821 41.8306 48.1727 42.0935C47.2897 42.1986 43.3653 42.7242 40.5692 46.141C37.5278 49.8731 37.0863 55.5501 38.9995 59.3348C39.1466 59.6502 41.0107 63.2772 43.1201 63.0669C44.1993 62.9618 44.6898 61.9105 45.9652 62.0682C46.8482 62.1733 47.0444 62.699 48.1727 63.4349C48.467 63.6451 51.3613 65.4849 52.931 64.4336C54.1574 63.6451 53.863 61.4374 54.5008 61.3848C55.1385 61.3323 55.2366 63.4349 56.7082 64.4336C58.2289 65.4849 60.7798 65.117 61.7609 63.7503C62.5948 62.5938 61.859 61.3848 62.6929 60.7015C63.5268 60.0707 64.4589 61.0695 65.8324 60.7015C67.304 60.281 68.4813 58.5463 68.6776 56.9694C68.7757 56.1809 68.6776 55.077 64.9004 50.1885C62.4476 46.982 61.1722 45.4051 59.5534 44.4063C58.0327 43.5127 56.7082 43.1973 54.5008 42.7242V42.7768Z" fill="black" stroke="black" stroke-width="0.458529" stroke-miterlimit="10"/>
<path d="M135.932 34.3144C136.913 34.3144 137.158 35.8387 138.483 35.9964C139.611 36.1016 139.807 34.9451 141.328 34.6297C143.045 34.2618 145.105 35.208 146.086 36.6798C146.43 37.2054 146.381 37.4157 146.724 37.6785C147.656 38.5196 148.686 37.6785 150.207 37.9939C151.727 38.3619 152.905 39.7811 153.346 41.0427C153.542 41.5683 153.592 42.1991 153.641 43.4081C153.739 45.2479 153.641 46.6671 153.641 47.1402C153.395 51.9236 154.524 53.1326 153.641 54.2365C152.758 55.3404 151.139 54.8673 147.656 54.5519C147.656 54.5519 144.467 54.2891 138.483 54.5519C131.223 54.8673 128.77 56.4968 126.808 54.5519C125.974 53.7109 125.728 52.6596 125.238 50.5044C124.846 48.7697 123.717 44.0915 125.876 41.6735C126.121 41.3581 126.072 41.5683 129.653 39.6234C132.596 38.0465 132.89 37.8362 133.136 37.5734C134.902 35.8913 134.951 34.2092 135.981 34.2092L135.932 34.3144Z" fill="black" stroke="black" stroke-width="0.458529" stroke-miterlimit="10"/>
<path d="M131.025 52.6599V50.4522C131.074 48.6124 134.165 46.9303 134.508 46.72C138.678 44.4597 142.946 46.0893 143.534 46.3521C146.38 47.5085 148.047 49.5586 148.047 50.4522V52.6599C147.802 53.6586 143.534 52.765 139.365 53.0278C135.048 53.3432 131.516 54.8676 131.025 53.7638V52.6599Z" fill="black" stroke="black" stroke-width="0.458529" stroke-miterlimit="10"/>
<path d="M129.75 45.6679C130.97 45.6679 131.958 44.6088 131.958 43.3024C131.958 41.996 130.97 40.937 129.75 40.937C128.531 40.937 127.543 41.996 127.543 43.3024C127.543 44.6088 128.531 45.6679 129.75 45.6679Z" fill="black" stroke="black" stroke-width="0.458529" stroke-miterlimit="10"/>
<path d="M136.273 42.6191C137.411 42.6191 138.333 41.6306 138.333 40.4113C138.333 39.192 137.411 38.2036 136.273 38.2036C135.135 38.2036 134.213 39.192 134.213 40.4113C134.213 41.6306 135.135 42.6191 136.273 42.6191Z" fill="black" stroke="black" stroke-width="0.458529" stroke-miterlimit="10"/>
<path d="M142.896 43.6179C144.034 43.6179 144.957 42.6294 144.957 41.4101C144.957 40.1908 144.034 39.2024 142.896 39.2024C141.758 39.2024 140.836 40.1908 140.836 41.4101C140.836 42.6294 141.758 43.6179 142.896 43.6179Z" fill="black" stroke="black" stroke-width="0.458529" stroke-miterlimit="10"/>
<path d="M149.373 47.0348C150.511 47.0348 151.433 46.0464 151.433 44.8271C151.433 43.6078 150.511 42.6194 149.373 42.6194C148.235 42.6194 147.312 43.6078 147.312 44.8271C147.312 46.0464 148.235 47.0348 149.373 47.0348Z" fill="black" stroke="black" stroke-width="0.458529" stroke-miterlimit="10"/>
<path d="M108.311 33.1579C109.015 33.1579 109.586 32.5461 109.586 31.7913C109.586 31.0364 109.015 30.4246 108.311 30.4246C107.606 30.4246 107.035 31.0364 107.035 31.7913C107.035 32.5461 107.606 33.1579 108.311 33.1579Z" fill="black" stroke="black" stroke-width="0.458529" stroke-miterlimit="10"/>
<path d="M82.5593 35.5231C84.0494 35.5231 85.2573 34.2287 85.2573 32.632C85.2573 31.0353 84.0494 29.741 82.5593 29.741C81.0693 29.741 79.8613 31.0353 79.8613 32.632C79.8613 34.2287 81.0693 35.5231 82.5593 35.5231Z" fill="black" stroke="black" stroke-width="0.458529" stroke-miterlimit="10"/>
<path d="M89.6738 34.8401C90.753 34.367 91.685 34.6298 92.8133 34.8401H98.798C100.613 34.8401 101.594 34.8401 102.575 35.5234C102.919 35.7863 103.752 36.3119 103.851 37.2055C103.998 38.4671 102.624 39.6235 101.937 40.2543C101.839 40.3068 101.937 40.2543 100.662 41.253C99.8445 41.9188 99.4193 42.2517 99.3866 42.2517C98.7489 42.6723 97.915 42.7248 96.2471 42.9351C95.7075 42.9877 95.1679 43.0402 94.4812 42.9877C94.4812 42.9877 94.0887 42.9877 93.7453 42.9351C91.9794 42.7248 90.1153 41.6735 89.9681 41.5684C88.4474 40.7274 87.7116 40.2543 87.4173 39.5184C86.8286 37.9414 87.9569 36.3119 88.055 36.1542C88.6927 35.2606 89.4776 34.8926 89.6247 34.7875L89.6738 34.8401Z" fill="black" stroke="black" stroke-width="0.458529" stroke-miterlimit="10"/>
<path d="M94.3814 43.3025C94.1852 43.5653 94.2833 43.7756 94.3814 44.9846C94.5286 46.8244 94.4305 47.1923 94.3814 47.35C94.0871 48.1911 93.3513 48.559 93.106 48.7167C90.8495 49.9783 87.71 47.5077 87.4156 48.0334C87.2194 48.4013 88.593 49.6629 88.6911 49.7155C88.9854 49.9783 89.525 50.4514 90.2608 50.7142C90.7023 50.8719 92.0758 51.2924 93.4003 50.7142C94.6267 50.1885 94.7738 49.2949 95.6078 49.3475C96.2945 49.3475 96.3436 49.9257 97.1775 50.3462C98.7963 51.1873 100.709 50.136 100.955 50.0308C102.377 49.2424 103.309 47.8757 103.162 47.6654C103.064 47.5077 102.377 48.2436 100.955 48.6642C100.17 48.927 98.7963 49.3475 97.4718 48.6642C97.2266 48.559 96.4908 48.1385 96.1964 47.2975C96.0983 46.9821 96.0983 46.7718 96.1964 45.6154C96.3436 43.723 96.3926 43.5128 96.1964 43.25C95.804 42.7243 94.6757 42.7243 94.2833 43.25L94.3814 43.3025Z" fill="black" stroke="black" stroke-width="0.458529" stroke-miterlimit="10"/>
<path d="M88.1513 27.2183C87.857 26.9029 87.2684 26.4298 85.6005 26.2195C84.5703 26.0618 82.2157 25.7465 79.6158 26.9029C75.0537 28.9004 73.3368 33.6838 72.9934 34.6825C71.8652 37.7838 72.1105 40.307 72.3557 43.1455C72.5029 44.775 72.7482 45.7212 73.2878 46.5096C74.6613 48.5597 77.0159 48.8225 77.4084 48.8751C79.9102 49.1379 81.6761 47.6135 82.1667 47.193C82.6082 46.825 84.3251 45.2481 84.7175 42.7775C84.9137 41.4634 84.5703 40.8326 85.0118 39.4134C85.2081 38.73 85.3062 38.8351 86.2873 37.0479C87.3174 35.1556 87.2684 34.9453 88.2004 33.3158C88.9853 32.0017 89.0343 32.0543 89.1324 31.6337C89.5249 30.267 89.2796 28.3747 88.2004 27.2183H88.1513Z" fill="black" stroke="black" stroke-width="0.458529" stroke-miterlimit="10"/>
<path d="M82.7051 32.422C83.4095 32.422 83.9805 31.9042 83.9805 31.2656C83.9805 30.6269 83.4095 30.1091 82.7051 30.1091C82.0007 30.1091 81.4297 30.6269 81.4297 31.2656C81.4297 31.9042 82.0007 32.422 82.7051 32.422Z" fill="black" stroke="black" stroke-width="0.458529" stroke-miterlimit="10"/>
<path d="M108.116 34.8395C109.606 34.8395 110.814 33.5451 110.814 31.9485C110.814 30.3518 109.606 29.0574 108.116 29.0574C106.626 29.0574 105.418 30.3518 105.418 31.9485C105.418 33.5451 106.626 34.8395 108.116 34.8395Z" fill="white" stroke="black" stroke-width="0.458529" stroke-miterlimit="10"/>
<path d="M62.2511 79.7828C62.2511 79.993 62.104 80.0456 61.7606 80.0456C60.5833 80.0456 58.7682 79.9404 56.3646 79.7302C53.9609 79.5199 52.1459 79.4148 50.9195 79.4148C49.6931 79.4148 48.5158 79.4674 48.2705 79.5725C47.6819 79.8879 47.3876 80.6764 47.3876 81.9905C47.3876 83.3046 47.78 84.5136 48.5158 84.7239C48.8101 84.829 49.3007 84.829 49.9384 84.829C51.0176 84.829 52.6855 84.7764 54.8439 84.6187C57.0023 84.5136 58.6701 84.4085 59.7493 84.4085C60.8285 84.4085 60.5342 85.8803 60.5342 88.8765C60.5342 91.8727 60.4361 92.9766 60.2889 93.3971C60.1908 93.7125 59.9456 93.8702 59.6512 93.8702C59.8474 93.8702 59.3569 93.8176 58.1305 93.7125C56.4627 93.5548 53.8628 93.4497 50.429 93.4497C46.9951 93.4497 48.712 93.4497 48.5649 93.4497C47.78 93.6074 47.3385 93.9753 47.3385 94.5535C47.3385 96.9715 47.4366 99.7049 47.6328 102.859C47.78 105.697 47.8781 106.959 47.8781 106.643C47.8781 107.064 47.3876 107.327 46.3574 107.432C46.6517 107.432 45.9159 107.432 44.2481 107.432C41.3048 107.432 39.3916 107.327 38.5087 107.117C38.0672 107.011 37.8219 106.749 37.8219 106.328C37.8219 104.436 37.871 101.597 38.0181 97.8651C38.1653 94.133 38.2143 91.2945 38.2143 89.4022C38.2143 87.5098 38.1162 84.3559 37.92 80.9392C37.6257 75.6827 37.4785 72.8967 37.4785 72.4762V72.1608C37.4785 71.7403 37.6747 71.53 38.1653 71.53C39.3426 71.53 41.1086 71.53 43.4632 71.5826C45.8178 71.6352 47.5838 71.6352 48.8101 71.6352C50.0365 71.6352 51.9987 71.53 54.5005 71.3198C57.0513 71.1095 58.9645 71.0044 60.1908 71.0044C61.4172 71.0044 61.4172 71.3723 61.5153 72.0557C61.5153 72.7916 61.5153 73.8955 61.6134 75.3147C61.6134 75.6827 61.7606 76.4186 61.9077 77.4699C62.0549 78.4161 62.153 79.0994 62.153 79.6251L62.2511 79.7828Z" fill="black" stroke="black" stroke-width="0.458529" stroke-miterlimit="10"/>
<path d="M74.6623 88.4032C74.6623 90.4006 74.6623 93.3968 74.8094 97.4444C74.9566 101.492 74.9566 104.488 74.9566 106.486C74.9566 108.483 74.9075 107.011 74.7604 107.116C74.7604 107.116 74.5151 107.116 74.1227 107.221C73.0925 107.379 71.719 107.432 70.0021 107.432C68.2852 107.432 66.2249 107.379 65.5872 107.221C65.1457 107.116 64.9004 106.853 64.9004 106.433C64.9004 106.696 64.9494 105.224 65.0966 101.965C65.3909 95.0789 65.5381 90.6109 65.5381 88.4557C65.5381 86.3006 65.489 83.9351 65.3909 80.3081C65.2928 76.6812 65.2438 73.9478 65.2438 72.1606C65.2438 70.3733 65.44 71.5823 65.7834 71.5823C66.1268 71.5823 67.0097 71.5823 67.9908 71.6349C68.9719 71.6875 69.7078 71.6875 70.1983 71.6875C70.6888 71.6875 71.4247 71.6875 72.3567 71.6349C73.2887 71.5823 74.0246 71.5823 74.5151 71.5823C75.0056 71.5823 75.2019 71.7926 75.2019 72.1606C75.2019 74.0003 75.1038 76.6812 74.9075 80.3081C74.7113 83.9351 74.6132 86.6685 74.6132 88.4557L74.6623 88.4032Z" fill="black" stroke="black" stroke-width="0.458529" stroke-miterlimit="10"/>
<path d="M107.232 101.44C107.232 101.703 107.085 102.071 106.741 102.491C103.847 106.223 99.9716 108.063 95.1152 108.063C90.2588 108.063 86.1872 106.276 83.0968 102.649C80.1044 99.1798 78.6328 94.7643 78.6328 89.4027C78.6328 84.041 80.1044 79.8884 82.9987 76.2614C86.0401 72.4767 89.9154 70.637 94.6737 70.637C99.432 70.637 103.798 72.319 106.741 75.6832C107.035 76.0512 107.232 76.3666 107.232 76.6819C107.232 76.9973 106.692 78.2063 105.564 80.2564C104.485 82.3064 103.749 83.4628 103.504 83.7257C103.356 83.8833 103.209 83.9359 103.013 83.9359C102.817 83.9359 102.522 83.6205 101.836 82.9372C101.002 82.1487 100.168 81.4654 99.3339 81.0448C98.0585 80.3615 96.783 80.0461 95.4586 80.0461C93.153 80.0461 91.2889 80.9923 89.8663 82.8321C88.5909 84.5667 87.9532 86.6693 87.9532 89.245C87.9532 91.8207 88.5909 93.9758 89.8663 95.7105C91.2399 97.6028 93.1039 98.549 95.4586 98.549C97.8132 98.549 98.1566 98.2336 99.3829 97.6028C100.168 97.1823 101.002 96.6041 101.836 95.8156C102.522 95.1848 102.915 94.8694 103.013 94.8694C103.16 94.8694 103.307 94.9746 103.504 95.1323C103.749 95.4477 104.436 96.499 105.564 98.2862C106.692 100.179 107.281 101.177 107.281 101.388L107.232 101.44Z" fill="black" stroke="black" stroke-width="0.458529" stroke-miterlimit="10"/>
<path d="M119.447 88.4032C119.447 90.4006 119.447 93.3968 119.595 97.4444C119.742 101.492 119.742 104.488 119.742 106.486C119.742 108.483 119.644 107.011 119.546 107.116C119.546 107.116 119.3 107.116 118.908 107.221C117.878 107.379 116.504 107.432 114.787 107.432C113.07 107.432 111.01 107.379 110.372 107.221C109.931 107.116 109.686 106.853 109.686 106.433C109.686 106.696 109.735 105.224 109.882 101.965C110.176 95.0789 110.323 90.6109 110.323 88.4557C110.323 86.3006 110.274 83.9351 110.176 80.3081C110.078 76.6812 110.029 73.9478 110.029 72.1606C110.029 70.3733 110.225 71.5823 110.569 71.5823C110.912 71.5823 111.795 71.5823 112.776 71.6349C113.757 71.6875 114.493 71.6875 114.983 71.6875C115.474 71.6875 116.21 71.6875 117.142 71.6349C118.074 71.5823 118.81 71.5823 119.3 71.5823C119.791 71.5823 119.987 71.7926 119.987 72.1606C119.987 74.0003 119.889 76.6812 119.693 80.3081C119.496 83.9351 119.398 86.6685 119.398 88.4557L119.447 88.4032Z" fill="black" stroke="black" stroke-width="0.458529" stroke-miterlimit="10"/>
<path d="M156.042 72.3186C156.042 74.2635 155.943 77.1546 155.796 81.0444C155.649 84.9342 155.551 87.8253 155.551 89.7702V106.538C155.551 107.012 155.306 107.222 154.864 107.222H151.43C151.038 107.222 150.4 107.222 149.566 107.117C148.732 107.012 148.144 107.012 147.702 107.012C147.261 107.012 147.065 106.749 146.672 106.17C145.544 104.541 142.944 100.861 138.971 95.237C137.891 93.66 136.223 91.3471 133.967 88.2984C133.918 88.1932 133.771 88.0881 133.624 87.983C133.476 88.0881 133.427 88.2984 133.427 88.5612C133.427 90.5061 133.476 93.4497 133.575 97.3921C133.673 101.335 133.722 104.278 133.722 106.223C133.722 108.168 133.525 107.117 133.084 107.117H124.892C124.45 107.117 124.205 106.854 124.205 106.328C124.205 104.488 124.303 101.755 124.45 98.0229C124.598 94.2908 124.696 91.5574 124.696 89.7176C124.696 87.8778 124.598 84.8816 124.45 80.9918C124.303 77.102 124.205 74.2109 124.205 72.266C124.205 70.3211 124.499 71.6878 125.137 71.6878C126.069 71.6878 127.197 71.6352 128.522 71.4776C128.816 71.4776 129.454 71.3199 130.386 71.1622C131.171 71.0045 131.809 70.9519 132.25 70.9519C132.692 70.9519 132.741 71.2147 133.133 71.7929L141.963 84.7765C142.748 85.9329 143.974 87.6676 145.544 89.9279C145.936 90.4535 146.28 90.7164 146.574 90.7164C146.868 90.7164 146.868 90.033 146.868 88.7189C146.868 87.4048 146.77 84.2509 146.574 80.6764C146.378 77.102 146.28 74.4212 146.28 72.634C146.28 70.8468 146.427 71.6878 146.77 71.6878C147.702 71.6878 149.125 71.6878 151.087 71.5827C153.049 71.4776 154.423 71.4776 155.404 71.4776C156.385 71.4776 155.845 71.7404 155.845 72.266L156.042 72.3186Z" fill="black" stroke="black" stroke-width="0.458529" stroke-miterlimit="10"/>
<path d="M36.9861 156.003C36.9861 156.528 36.7408 156.844 36.2503 156.844H27.5185C27.028 156.844 26.7827 156.528 26.7827 155.897C26.7827 154.11 26.8318 151.429 26.9789 147.908C27.1261 144.386 27.1752 141.652 27.1752 139.918C27.1752 138.183 27.077 139.129 26.9789 139.077C26.7827 139.182 25.7035 141.915 23.6923 147.224C22.515 150.378 21.3377 153.479 20.1603 156.633C20.0132 157.054 19.7679 157.264 19.5226 157.369H18.5415C17.6586 157.369 17.168 157.212 17.0208 156.844C16.1379 154.899 14.9605 152.06 13.4889 148.381C11.9192 144.438 10.7909 141.652 10.006 139.865C10.006 139.76 9.90791 139.707 9.8098 139.602C9.71169 139.76 9.66264 140.023 9.66264 140.391C9.66264 142.125 9.66264 144.701 9.76075 148.17C9.85886 151.64 9.85886 154.215 9.85886 155.95C9.85886 157.685 9.61358 156.896 9.17209 156.896H0.930906C0.587523 156.896 0.391305 156.844 0.34225 156.738C0.244141 156.633 0.244141 156.423 0.244141 156.16C0.244141 154.215 0.34225 151.324 0.489414 147.487C0.636578 143.65 0.734687 140.759 0.734687 138.814C0.734687 136.869 0.636578 132.926 0.489414 127.302C0.489414 125.83 0.391305 123.675 0.293195 120.784V120.311C0.293195 119.943 0.587523 119.785 1.32334 119.785C2.05916 119.785 3.57986 119.785 5.39488 119.68C7.2099 119.628 8.58344 119.575 9.46642 119.575C10.3494 119.575 9.90791 119.943 10.2513 120.679L17.4623 137.657C17.9529 138.814 18.3944 139.392 18.7378 139.392C19.0811 139.392 19.3264 138.709 19.9151 137.395C21.5829 133.715 24.0357 128.09 27.3223 120.626C27.6166 119.943 27.911 119.575 28.2544 119.575C28.7449 119.575 29.4317 119.575 30.4128 119.68C31.3939 119.68 32.0806 119.785 32.5712 119.785C33.0617 119.785 33.6013 119.785 34.4352 119.68C35.2692 119.575 35.9069 119.575 36.2993 119.575C36.6918 119.575 37.0351 119.785 37.0351 120.206C37.0351 122.308 36.9861 125.41 36.8389 129.51C36.6918 133.61 36.6427 136.764 36.6427 138.814C36.6427 140.864 36.7408 143.597 36.8389 147.487C36.9861 151.324 37.0351 154.215 37.0351 156.108L36.9861 156.003Z" fill="black" stroke="black" stroke-width="0.458529" stroke-miterlimit="10"/>
<path d="M74.1216 156.16C74.1216 156.475 73.9254 156.685 73.4839 156.843C72.9933 157.001 71.4726 157.053 68.8727 157.053C66.2728 157.053 64.9974 157.001 64.3106 156.843C63.771 156.738 63.3786 156.318 63.2314 155.634C62.6918 153.111 62.2503 151.744 61.9069 151.534C61.6617 151.429 59.4542 151.376 55.2846 151.376C51.1149 151.376 51.0168 151.482 50.8206 151.639C50.5263 151.902 50.2319 152.848 49.8886 154.478C49.5942 155.95 49.2018 156.738 48.7603 156.843C48.2207 157.001 46.3076 157.053 43.119 157.053C39.9305 157.053 39.3418 156.791 39.3418 156.265C39.3418 155.739 41.2059 150.167 44.934 139.339C48.9565 127.67 51.164 121.204 51.5074 120.048C51.7036 119.364 51.9489 119.049 52.1941 119.049C52.6356 119.049 53.3224 119.049 54.2544 119.154C55.1865 119.259 55.8732 119.259 56.3147 119.259C56.7562 119.259 57.3939 119.259 58.2769 119.154C59.1599 119.049 59.7976 119.049 60.19 119.049C60.5825 119.049 60.7787 119.312 61.073 119.943C61.8579 121.782 64.2125 128.143 68.1369 138.971C72.0613 149.905 74.0235 155.582 74.0235 156.055L74.1216 156.16ZM52.047 118.891C51.7526 118.891 51.5564 118.734 51.5564 118.313V116.946C51.5564 116.789 51.5564 116.421 51.4583 115.948C51.4093 115.527 51.3602 115.159 51.3602 114.949C51.3602 114.739 51.5074 114.528 51.8998 114.371C52.6847 114.055 54.2544 113.162 56.609 111.742C57.6392 110.954 59.1599 109.797 61.1711 108.273C61.2692 108.168 61.4164 108.115 61.6617 108.01C61.7598 108.01 61.907 108.115 62.1032 108.273C62.4956 108.694 63.0843 109.324 63.9182 110.06C64.3597 110.323 65.0464 110.796 65.9294 111.427C66.1747 111.637 66.3219 111.795 66.3219 111.953C66.3219 112.11 66.2238 112.268 65.9785 112.531C64.5559 114.003 62.3484 115.369 59.4542 116.683C56.56 117.998 54.1563 118.681 52.1941 118.786H51.9979L52.047 118.891ZM56.609 132.032C56.2657 132.821 55.677 134.503 54.8431 137.079C53.9601 139.812 53.5186 141.442 53.5186 141.915C53.5186 142.388 54.0091 142.388 54.9902 142.44H57.492C58.6203 142.44 59.1599 142.283 59.3071 142.02V141.652C59.3071 141.074 58.9146 139.444 58.1788 136.816C57.443 134.293 56.9034 132.663 56.56 131.927L56.609 132.032Z" fill="black" stroke="black" stroke-width="0.458529" stroke-miterlimit="10"/>
<path d="M109.146 155.95C109.146 156.423 108.95 156.686 108.46 156.686C107.969 156.686 107.233 156.475 105.762 156.107C104.29 155.739 103.358 155.477 103.015 155.319C99.5808 156.791 96.2941 157.474 93.1056 157.474C88.0039 157.474 83.8343 155.634 80.5967 152.007C77.359 148.433 75.7402 143.912 75.7402 138.445C75.7402 132.979 77.31 128.195 80.4495 124.516C83.6871 120.731 87.8567 118.786 93.0075 118.786C98.1582 118.786 97.8639 119.312 100.071 120.311C102.475 121.467 104.339 123.044 105.713 125.094C106.007 125.514 106.154 125.83 106.154 125.988C106.154 126.566 105.418 127.827 103.947 129.772C102.475 131.717 101.543 132.716 101.102 132.716C100.66 132.716 100.611 132.348 99.9732 131.612C99.1884 130.771 98.3544 130.088 97.5205 129.615C96.2451 128.879 94.8716 128.511 93.3509 128.511C90.8981 128.511 88.9359 129.509 87.4643 131.454C86.0908 133.294 85.4531 135.554 85.4531 138.235C85.4531 140.916 86.1398 143.387 87.5624 145.069C88.985 146.803 91.0453 147.644 93.6942 147.644C96.3432 147.644 97.2262 147.171 99.3355 146.278C99.3355 145.699 99.1393 144.228 98.894 141.81C98.6978 139.97 98.5507 138.498 98.5507 137.342C98.5507 136.185 98.6488 136.816 98.894 136.711H99.2865C99.777 136.711 100.464 136.711 101.445 136.869C102.426 136.974 103.113 137.026 103.603 137.026C104.094 137.026 104.928 137.026 105.958 136.921C107.037 136.816 107.822 136.816 108.313 136.816C108.803 136.816 108.95 137.079 108.95 137.71C108.95 138.551 108.95 139.812 108.803 141.547C108.705 143.281 108.656 144.543 108.656 145.384C108.656 147.644 108.803 151.061 109.146 155.582V155.845V155.95Z" fill="black" stroke="black" stroke-width="0.458529" stroke-miterlimit="10"/>
<path d="M122.635 137.289C122.635 139.391 122.635 142.493 122.782 146.698C122.88 150.903 122.929 154.005 122.929 156.107C122.929 158.21 122.831 156.685 122.733 156.79C122.733 156.79 122.488 156.79 122.095 156.896C121.016 157.053 119.594 157.106 117.779 157.106C115.964 157.106 113.854 157.053 113.167 156.896C112.677 156.79 112.432 156.528 112.432 156.055C112.432 156.317 112.53 154.793 112.628 151.376C112.922 144.227 113.069 139.549 113.069 137.289C113.069 135.029 113.02 132.558 112.922 128.773C112.824 124.989 112.775 122.15 112.775 120.258C112.775 118.365 112.971 119.68 113.364 119.68C113.756 119.68 114.639 119.68 115.669 119.785C116.699 119.785 117.484 119.89 117.975 119.89C118.465 119.89 119.25 119.89 120.231 119.785C121.212 119.785 121.997 119.68 122.488 119.68C122.978 119.68 123.224 119.89 123.224 120.258C123.224 122.15 123.126 124.989 122.929 128.773C122.733 132.558 122.635 135.396 122.635 137.289Z" fill="black" stroke="black" stroke-width="0.458529" stroke-miterlimit="10"/>
<path d="M156.485 150.851C156.485 151.114 156.338 151.482 155.946 151.955C152.904 155.792 148.882 157.737 143.878 157.737C138.875 157.737 134.558 155.844 131.369 152.112C128.279 148.485 126.709 143.912 126.709 138.34C126.709 132.768 128.23 128.406 131.271 124.673C134.46 120.731 138.482 118.786 143.388 118.786C148.293 118.786 152.904 120.521 155.946 124.043C156.289 124.411 156.436 124.779 156.436 125.094C156.436 125.409 155.847 126.671 154.719 128.826C153.591 130.981 152.855 132.19 152.561 132.453C152.414 132.611 152.266 132.663 152.07 132.663C151.874 132.663 151.58 132.295 150.844 131.612C149.961 130.771 149.078 130.088 148.244 129.615C146.92 128.931 145.595 128.563 144.172 128.563C141.769 128.563 139.807 129.509 138.384 131.454C137.06 133.242 136.373 135.502 136.373 138.13C136.373 140.758 137.06 143.071 138.384 144.858C139.807 146.856 141.769 147.802 144.172 147.802C146.576 147.802 146.969 147.487 148.244 146.803C149.078 146.383 149.961 145.752 150.795 144.964C151.531 144.28 151.923 143.965 152.021 143.965C152.168 143.965 152.365 144.07 152.512 144.228C152.757 144.543 153.493 145.647 154.67 147.539C155.847 149.484 156.485 150.588 156.485 150.746V150.851Z" fill="black" stroke="black" stroke-width="0.458529" stroke-miterlimit="10"/>
<path d="M191.754 156.16C191.754 156.475 191.558 156.685 191.117 156.843C190.626 157.001 189.105 157.053 186.506 157.053C183.906 157.053 182.63 157.001 181.943 156.843C181.404 156.738 181.011 156.317 180.864 155.634C180.325 153.111 179.883 151.744 179.54 151.534C179.294 151.429 177.087 151.376 172.917 151.376C168.748 151.376 168.65 151.481 168.453 151.639C168.159 151.902 167.865 152.848 167.521 154.478C167.227 155.949 166.835 156.738 166.393 156.843C165.854 157.001 163.94 157.053 160.752 157.053C157.563 157.053 156.975 156.791 156.975 156.265C156.975 155.739 158.839 150.167 162.567 139.339C166.589 127.669 168.797 121.204 169.14 120.048C169.336 119.364 169.582 119.049 169.827 119.049C170.268 119.049 170.955 119.049 171.887 119.154C172.819 119.259 173.506 119.259 173.948 119.259C174.389 119.259 175.027 119.259 175.91 119.154C176.793 119.049 177.43 119.049 177.823 119.049C178.215 119.049 178.411 119.312 178.706 119.942C179.491 121.782 181.845 128.143 185.77 138.971C189.694 149.905 191.656 155.582 191.656 156.055L191.754 156.16ZM174.242 132.032C173.898 132.821 173.31 134.503 172.476 137.079C171.593 139.812 171.151 141.442 171.151 141.915C171.151 142.388 171.642 142.388 172.623 142.44H175.125C176.253 142.44 176.793 142.283 176.94 142.02V141.652C176.94 141.074 176.547 139.444 175.812 136.816C175.076 134.293 174.536 132.663 174.193 131.927L174.242 132.032Z" fill="black" stroke="black" stroke-width="0.458529" stroke-miterlimit="10"/>
<path d="M82.8543 35.0507C84.3443 35.0507 85.5523 33.7563 85.5523 32.1596C85.5523 30.5629 84.3443 29.2686 82.8543 29.2686C81.3642 29.2686 80.1562 30.5629 80.1562 32.1596C80.1562 33.7563 81.3642 35.0507 82.8543 35.0507Z" fill="white" stroke="black" stroke-width="0.458529" stroke-miterlimit="10"/>
</g>
<defs>
<clipPath id="clip0_37_39">
<rect width="192" height="158" fill="white"/>
</clipPath>
</defs>
</svg>
